<?xml version="1.0" encoding="UTF-8" standalone="no"?>
<!-- Created with Inkscape (http://www.inkscape.org/) -->

<svg
   xmlns:dc="http://purl.org/dc/elements/1.1/"
   xmlns:cc="http://creativecommons.org/ns#"
   xmlns:rdf="http://www.w3.org/1999/02/22-rdf-syntax-ns#"
   xmlns:svg="http://www.w3.org/2000/svg"
   xmlns="http://www.w3.org/2000/svg"
   xmlns:sodipodi="http://sodipodi.sourceforge.net/DTD/sodipodi-0.dtd"
   xmlns:inkscape="http://www.inkscape.org/namespaces/inkscape"
   width="210mm"
   height="297mm"
   viewBox="0 0 210 297"
   version="1.1"
   id="svg8"
   inkscape:version="0.92.3 (2405546, 2018-03-11)"
   sodipodi:docname="labels.svg">
  <defs
     id="defs2" />
  <sodipodi:namedview
     id="base"
     pagecolor="#ffffff"
     bordercolor="#666666"
     borderopacity="1.0"
     inkscape:pageopacity="0.0"
     inkscape:pageshadow="2"
     inkscape:zoom="1.4"
     inkscape:cx="120.29986"
     inkscape:cy="844.97526"
     inkscape:document-units="mm"
     inkscape:current-layer="layer1"
     showgrid="false"
     showguides="true"
     inkscape:window-width="1918"
     inkscape:window-height="1060"
     inkscape:window-x="0"
     inkscape:window-y="0"
     inkscape:window-maximized="0" />
  <metadata
     id="metadata5">
    <rdf:RDF>
      <cc:Work
         rdf:about="">
        <dc:format>image/svg+xml</dc:format>
        <dc:type
           rdf:resource="http://purl.org/dc/dcmitype/StillImage" />
        <dc:title />
      </cc:Work>
    </rdf:RDF>
  </metadata>
  <g
     inkscape:label="layer1"
     inkscape:groupmode="layer"
     id="layer1">
    <path
       style="fill:#008080;fill-rule:evenodd;stroke:#000000;stroke-width:0.26458332px;stroke-linecap:butt;stroke-linejoin:miter;stroke-opacity:1"
       d="m 9.8273815,1.611607 c -0.37798,-0.125992 -0.73668,-0.408535 -1.1339298,-0.377976 -1.23576,0.09506 -1.98778,1.232795 -2.64583,2.078869 -1.08384,1.393502 -2.43491,3.556814 -3.02381,5.102677 -0.75064,1.970426 -1.67417,5.825564 -1.88988,8.126489 -0.0823,0.878094 0,1.76389 0,2.645833 0,1.133928 0,2.267858 0,3.401785 0,0.824878 -0.0957,2.313355 0.37797,3.023809 1.76118,2.641778 5.63342,4.313838 8.3154798,5.10268 1.1482905,0.337733 2.3938545,0 3.5907745,0 0.81895,0 1.6379,0 2.45685,0 0.50397,0 1.00942,0.03865 1.5119,0 0.32027,-0.02463 0.64418,-0.0762 0.94494,-0.188989 2.14182,-0.803182 -0.43861,0.04043 0.75595,-0.755951 0.10484,-0.06989 0.26529,0.05635 0.37798,0 0.0563,-0.02817 -0.0445,-0.144444 0,-0.18899 0.0445,-0.04454 0.14444,-0.04454 0.18899,0 0.0445,0.04455 0,0.125992 0,0.18899 0,0.629959 0,1.259919 0,1.889881 0,0.881944 0.13615,1.77446 0,2.645833 -0.29427,1.883318 -1.76446,5.769386 -2.45685,7.370535 -0.44728,1.034341 -1.03966,2.000623 -1.5119,3.023809 -0.28433,0.61604 -0.51004,1.257528 -0.75595,1.889882 -0.19509,0.50164 -0.34142,1.023205 -0.56697,1.511903 -0.71927,1.558415 -0.39705,0.331163 -0.94494,1.700895 -0.27526,0.688153 -0.62945,1.971183 -0.75595,2.645834 -0.0936,0.499189 -0.12965,1.007491 -0.18899,1.511903 -0.0666,0.566547 -0.1534,1.131551 -0.18899,1.700892 -0.0275,0.440114 0,0.88195 0,1.32292 0,0.56696 0,1.13393 0,1.70089 0,0.12599 -0.10079,0.30238 0,0.37798 0.20779,0.15584 0.5024,0.13264 0.75596,0.18898 0.31356,0.0697 0.63331,0.11109 0.94494,0.18899 0.19326,0.0483 0.37046,0.15624 0.56696,0.18899 0.18642,0.0311 0.38055,-0.0311 0.56696,0 0.1965,0.0328 0.37371,0.14067 0.56697,0.18899 0.17082,0.0427 0.91181,0 1.13393,0 0.12599,0 0.25198,0 0.37797,0 0.126,0 0.26994,0.0648 0.37798,0 0.22918,-0.13751 0.41162,-0.34948 0.56696,-0.56697 0.16375,-0.22925 0.24116,-0.50967 0.37798,-0.75595 0.47483,-0.8547 0.98869,-1.49594 1.32292,-2.456844 0.75755,-2.177957 0.94147,-3.947956 1.32291,-6.236605 0.126,-0.755954 0.23458,-1.515014 0.37798,-2.267857 0.10867,-0.570537 0.28739,-1.127207 0.37798,-1.700892 0.0987,-0.625356 0.11046,-1.261669 0.18898,-1.889882 0.11051,-0.884018 0.31217,-1.757371 0.37798,-2.645833 0.0605,-0.816711 -0.0356,-1.638671 0,-2.456847 0.0275,-0.632503 0.15181,-1.257869 0.18899,-1.889879 0.0259,-0.440211 -0.0366,-0.883468 0,-1.322917 0.0871,-1.044871 0.17484,-0.699378 0.37797,-1.511906 0.0153,-0.06112 0,-0.125992 0,-0.188986 0.063,-0.18899 0.14068,-0.373703 0.18899,-0.566965 0.0153,-0.06112 -0.0282,-0.132644 0,-0.18899 0.0398,-0.07968 0.16082,-0.104468 0.18899,-0.188986 0.0398,-0.119528 -0.0306,-0.255746 0,-0.377976 0.0342,-0.13666 0.15029,-0.242533 0.18899,-0.377978 0.28249,-0.988711 0.11429,-1.024118 0.37797,-2.078869 0.47759,-1.910326 0.37798,-0.357944 0.37798,-2.078868 0,-0.377976 0,-0.755952 0,-1.13393 0,-0.125992 0,-0.251984 0,-0.377976 0,-0.06299 0.0282,-0.132641 0,-0.188986 -0.18439,-0.368787 -0.93715,-0.342199 -1.13393,-0.377976 -0.37701,-0.06855 -0.75595,-0.125992 -1.13393,-0.188989 -0.37797,-0.063 -0.75264,-0.150861 -1.13393,-0.18899 -0.25073,-0.02508 -0.50649,0.03564 -0.75595,0 -0.19721,-0.02817 -0.37797,-0.125992 -0.56696,-0.188986 -0.18899,-0.063 -0.39614,-0.08649 -0.56697,-0.188989 -0.15278,-0.09167 -0.25198,-0.251984 -0.37797,-0.377976 -0.42473,-0.424725 -0.7254,-0.664279 -0.94494,-1.322917 -0.14086,-0.42259 -0.12126,-0.882647 -0.18899,-1.322917 -0.24077,-1.565007 -0.18899,-0.651782 -0.18899,-2.078868 0,-0.62996 0,-1.259922 0,-1.889882 0,-0.251983 -0.0611,-0.511492 0,-0.755951 0.26715,-1.06861 0.67313,-0.843296 1.70089,-1.322917 0.5106,-0.238276 1.01936,-0.482314 1.51191,-0.755951 0.6422,-0.35678 1.25409,-0.765842 1.88988,-1.13393 0.5613,-0.324964 1.1356,-0.626965 1.70089,-0.944941 0.44267,-0.249 0.91661,-0.451218 1.32292,-0.755952 0.35636,-0.267269 0.60971,-0.65161 0.94494,-0.944941 0.17094,-0.149569 0.40636,-0.217366 0.56696,-0.377976 1.47973,-1.479722 0.35354,-0.435813 0.94494,-1.322916 0.57719,-0.86578 -0.30716,0.803309 0.37798,-0.566965 z"
       id="path3744"
       inkscape:connector-curvature="0"
       inkscape:label="freehand" />
  </g>
</svg>
